<svg xmlns="http://www.w3.org/2000/svg" aria-hidden="true" style="width:0;height:0;position:absolute;overflow:hidden"><defs><symbol id="icon-logo-whole-dark" viewBox="0 0 126 32"><path fill="#f6f6f6" d="m0 2.286 14.008 13.861 13.42 13.567V2.285H-.001z" style="fill:var(--color1,#f6f6f6)"/><path fill="#f6f6f6" d="m3.82 5.91 10.237 10.139 9.649 9.845H3.82V5.91z" style="fill:var(--color1,#f6f6f6)"/><path fill="#4f2ee8" d="M23.771 25.959 13.534 15.82 3.885 5.975h19.886v19.984z" style="fill:var(--color2,#4f2ee8)"/><path fill="#4f2ee8" d="m7.935 10.024 11.657 11.657H7.935V10.024z" style="fill:var(--color2,#4f2ee8)"/><path fill="#f6f6f6" d="m7.935 10.024 11.657 11.657V10.024H7.935z" style="fill:var(--color1,#f6f6f6)"/><path fill="#f3f3f3" d="M47.659 12.266c0-2.366-1.749-3.703-4.773-3.703h-6.315v14.709h6.665c3.045 0 4.999-1.461 4.999-4.299 0-2.201-1.317-3.333-2.859-3.6v-.041c1.214-.411 2.283-1.255 2.283-3.065zm-8.64 2.387v-4.011h3.929c1.461 0 2.263.72 2.263 2.016s-.658 1.995-2.407 1.995h-3.785zm0 1.83h4.299c1.543 0 2.469.843 2.469 2.345 0 1.378-.638 2.366-2.736 2.366h-4.032v-4.711zm15.497 7.098c-3.291 0-5.287-2.283-5.287-5.554s1.995-5.554 5.287-5.554c3.291 0 5.287 2.283 5.287 5.554s-1.995 5.554-5.287 5.554zm0-1.77c2.057 0 3.127-1.625 3.127-3.785 0-2.181-1.07-3.785-3.127-3.785s-3.127 1.605-3.127 3.785c0 2.16 1.07 3.785 3.127 3.785zm11.511 1.77c-3.291 0-5.287-2.283-5.287-5.554s1.995-5.554 5.287-5.554c3.291 0 5.287 2.283 5.287 5.554s-1.995 5.554-5.287 5.554zm0-1.77c2.057 0 3.127-1.625 3.127-3.785 0-2.181-1.07-3.785-3.127-3.785S62.9 15.846 62.9 18.026c0 2.16 1.07 3.785 3.127 3.785zm6.78-13.248v14.709h2.16v-3.806l1.461-1.378 3.312 5.184h2.592l-4.423-6.603L81.9 12.76h-2.654l-4.279 4.217V8.563h-2.16zm14.732 8.352c-1.522-.35-2.695-.432-2.695-1.502 0-.741.699-1.234 1.995-1.234 1.687 0 2.098.843 2.242 1.666h2.098c-.144-1.831-1.502-3.374-4.361-3.374-2.633 0-4.155 1.378-4.155 3.106 0 2.386 2.263 2.715 3.929 3.106 1.543.37 2.798.473 2.798 1.79 0 .658-.638 1.399-2.139 1.399-2.222 0-2.715-.967-2.818-2.098h-2.098c.103 2.222 1.563 3.806 4.958 3.806 2.551 0 4.279-1.255 4.279-3.271 0-2.51-2.098-2.942-4.032-3.394zm11.094-4.443c-1.769 0-2.859.823-3.415 1.646h-.041V8.564h-2.16v14.709h2.16v-6.398c0-1.563 1.131-2.571 2.715-2.571 1.502 0 2.098.905 2.098 2.325v6.645h2.181v-7.262c0-2.407-1.543-3.538-3.538-3.538zm10.163 9.339c-1.913 0-3.045-1.461-3.045-3.23h8.064c0-3.744-1.666-6.11-5.061-6.11-3.168 0-5.163 2.139-5.163 5.554 0 3.291 1.995 5.554 5.266 5.554 2.695 0 4.258-1.522 4.793-3.518h-2.16c-.185.638-.905 1.749-2.695 1.749zm-.042-7.632c1.749 0 2.901 1.173 2.901 2.798h-5.904c0-1.625 1.255-2.798 3.003-2.798zm6.583-5.616v14.709h2.181V8.563h-2.181zm9.236 1.77V8.564a7.6 7.6 0 0 0-1.44-.144c-1.728 0-2.674.782-2.674 3.003v1.337h-1.502v1.769h1.502v8.743h2.181v-8.743h1.934V12.76h-1.934v-1.152c0-1.193.535-1.337 1.934-1.275z" style="fill:var(--color3,#f3f3f3)"/></symbol><symbol id="icon-logo-whole-light" viewBox="0 0 126 32"><path fill="#f6f6f6" d="m0 2.286 14.008 13.861 13.42 13.567V2.285H-.001z" style="fill:var(--color1,#f6f6f6)"/><path fill="#f6f6f6" d="m3.82 5.91 10.237 10.139 9.649 9.845H3.82V5.91z" style="fill:var(--color1,#f6f6f6)"/><path fill="#4f2ee8" d="M23.771 25.959 13.534 15.82 3.885 5.975h19.886v19.984z" style="fill:var(--color2,#4f2ee8)"/><path fill="#4f2ee8" d="m7.935 10.024 11.657 11.657H7.935V10.024z" style="fill:var(--color2,#4f2ee8)"/><path fill="#f6f6f6" d="m7.935 10.024 11.657 11.657V10.024H7.935z" style="fill:var(--color1,#f6f6f6)"/><path d="M47.659 12.266c0-2.366-1.749-3.703-4.773-3.703h-6.315v14.709h6.665c3.045 0 4.999-1.461 4.999-4.299 0-2.201-1.317-3.333-2.859-3.6v-.041c1.214-.411 2.283-1.255 2.283-3.065zm-8.64 2.387v-4.011h3.929c1.461 0 2.263.72 2.263 2.016s-.658 1.995-2.407 1.995h-3.785zm0 1.83h4.299c1.543 0 2.469.843 2.469 2.345 0 1.378-.638 2.366-2.736 2.366h-4.032v-4.711zm15.497 7.098c-3.291 0-5.287-2.283-5.287-5.554s1.995-5.554 5.287-5.554c3.291 0 5.287 2.283 5.287 5.554s-1.995 5.554-5.287 5.554zm0-1.77c2.057 0 3.127-1.625 3.127-3.785 0-2.181-1.07-3.785-3.127-3.785s-3.127 1.605-3.127 3.785c0 2.16 1.07 3.785 3.127 3.785zm11.511 1.77c-3.291 0-5.287-2.283-5.287-5.554s1.995-5.554 5.287-5.554c3.291 0 5.287 2.283 5.287 5.554s-1.995 5.554-5.287 5.554zm0-1.77c2.057 0 3.127-1.625 3.127-3.785 0-2.181-1.07-3.785-3.127-3.785S62.9 15.846 62.9 18.026c0 2.16 1.07 3.785 3.127 3.785zm6.78-13.248v14.709h2.16v-3.806l1.461-1.378 3.312 5.184h2.592l-4.423-6.603L81.9 12.76h-2.654l-4.279 4.217V8.563h-2.16zm14.732 8.352c-1.522-.35-2.695-.432-2.695-1.502 0-.741.699-1.234 1.995-1.234 1.687 0 2.098.843 2.242 1.666h2.098c-.144-1.831-1.502-3.374-4.361-3.374-2.633 0-4.155 1.378-4.155 3.106 0 2.386 2.263 2.715 3.929 3.106 1.543.37 2.798.473 2.798 1.79 0 .658-.638 1.399-2.139 1.399-2.222 0-2.715-.967-2.818-2.098h-2.098c.103 2.222 1.563 3.806 4.958 3.806 2.551 0 4.279-1.255 4.279-3.271 0-2.51-2.098-2.942-4.032-3.394zm11.094-4.443c-1.769 0-2.859.823-3.415 1.646h-.041V8.564h-2.16v14.709h2.16v-6.398c0-1.563 1.131-2.571 2.715-2.571 1.502 0 2.098.905 2.098 2.325v6.645h2.181v-7.262c0-2.407-1.543-3.538-3.538-3.538zm10.163 9.339c-1.913 0-3.045-1.461-3.045-3.23h8.064c0-3.744-1.666-6.11-5.061-6.11-3.168 0-5.163 2.139-5.163 5.554 0 3.291 1.995 5.554 5.266 5.554 2.695 0 4.258-1.522 4.793-3.518h-2.16c-.185.638-.905 1.749-2.695 1.749zm-.042-7.632c1.749 0 2.901 1.173 2.901 2.798h-5.904c0-1.625 1.255-2.798 3.003-2.798zm6.583-5.616v14.709h2.181V8.563h-2.181zm9.236 1.77V8.564a7.6 7.6 0 0 0-1.44-.144c-1.728 0-2.674.782-2.674 3.003v1.337h-1.502v1.769h1.502v8.743h2.181v-8.743h1.934V12.76h-1.934v-1.152c0-1.193.535-1.337 1.934-1.275z" style="fill:var(--color4,#000)"/></symbol><symbol id="icon-fi-ss-caret-down" viewBox="0 0 28 32"><path d="M5.898 12h16.513l-7.423 8.391c-.221.25-.521.39-.834.39s-.613-.14-.834-.39L5.897 12z"/></symbol><symbol id="icon-uil_cart" viewBox="0 0 32 32"><path d="M25.333 9.333h-4V8a5.332 5.332 0 1 0-10.666 0v1.333h-4a1.335 1.335 0 0 0-1.334 1.334v14.667a4.003 4.003 0 0 0 4 4h13.333a4.003 4.003 0 0 0 4-4V10.667a1.335 1.335 0 0 0-1.334-1.334zM13.333 8a2.668 2.668 0 0 1 5.334 0v1.333h-5.333V8zM24 25.333a1.335 1.335 0 0 1-1.334 1.334H9.333a1.335 1.335 0 0 1-1.334-1.334V12h2.667v1.333a1.335 1.335 0 0 0 2.277.943c.25-.251.391-.589.391-.943V12h5.333v1.333a1.333 1.333 0 1 0 2.667 0V12h2.667v13.333z"/></symbol><symbol id="icon-untitled" viewBox="0 0 32 32"><path d="M31.229 9.921a15.221 15.221 0 0 0-2.138-.91v17.947A14.622 14.622 0 0 0 24 26.033c-2.764 0-5.498.806-8 2.357V10.339c-2.356-1.387-5.076-2.208-8-2.208-2.604 0-5.062.656-7.229 1.79-.48.239-.771.761-.771 1.313v18.021c0 .865.684 1.477 1.455 1.477.233 0 .465-.06.698-.179 1.76-.94 3.738-1.537 5.847-1.537 3.011 0 5.789 1.223 8 2.984 2.211-1.76 4.989-2.984 8-2.984 2.109 0 4.087.597 5.847 1.552.233.119.465.179.698.179.756 0 1.455-.612 1.455-1.477V11.234c0-.552-.291-1.074-.771-1.313zM13.091 26.958c-1.658-.612-3.36-.925-5.091-.925s-3.433.313-5.091.925V12.174a12.672 12.672 0 0 1 10.182.015v14.769zM26.182 2.909l-7.273 7.459V24.54l7.273-6.713V2.909z"/></symbol><symbol id="icon-trash-03" viewBox="0 0 32 32"><path stroke-linecap="round" stroke-linejoin="round" stroke-width="2.909" d="M12 4h8M4 8h24m-2.667 0-.935 14.026c-.14 2.104-.21 3.157-.665 3.954a4 4 0 0 1-1.731 1.619c-.826.4-1.881.4-3.99.4h-4.025c-2.109 0-3.163 0-3.99-.4a4.005 4.005 0 0 1-1.731-1.619c-.455-.798-.525-1.85-.665-3.954L6.666 8m6.667 6v6.667M18.667 14v6.667"/></symbol><symbol id="icon-material-symbols_arrow-back-ios-rounded" viewBox="0 0 32 32"><path d="M4.5 19.6 15.7 8.367c.133-.133.278-.228.433-.283s.322-.084.5-.084.344.028.5.084c.156.055.3.149.433.283L28.799 19.6c.311.311.467.7.467 1.167s-.167.867-.5 1.2c-.333.333-.722.5-1.167.5s-.833-.167-1.167-.5l-9.8-9.8-9.8 9.8c-.311.311-.694.467-1.149.467s-.851-.167-1.184-.5-.5-.722-.5-1.167c0-.444.167-.833.5-1.167z"/></symbol><symbol id="icon-align-left" viewBox="0 0 32 32"><path stroke-linecap="round" stroke-linejoin="round" stroke-width="2.286" d="M22.667 13.333H4M28 8H4m24 10.667H4M22.667 24H4"/></symbol><symbol id="icon-fi-rr-angle-small-left" viewBox="0 0 32 32"><path d="M15.053 17.867a1.334 1.334 0 0 0 1.894 0l6.107-6.12a1.334 1.334 0 1 1 1.894 1.88l-6.12 6.12a4.001 4.001 0 0 1-5.654 0l-6.12-6.12a1.337 1.337 0 0 1 .434-2.172 1.331 1.331 0 0 1 1.46.292l6.107 6.12z"/></symbol><symbol id="icon-Group-2" viewBox="0 0 20 32"><path d="M9.005 30.888a8.64 8.64 0 0 1-3.414-5.351H0V2.42c2.991 1.443 5.153 4.599 5.388 7.876l.846 6.493-.407-.045c-.893 0-1.676.812-1.676 1.608 0 .752.595 1.383 1.378 1.548l1.018.226c1.676-3.051 2.631-6.042 2.631-8.973 0-2.645-.36-5.291-.423-7.996 0-1.202.486-2.3 1.253-3.156.783.857 1.253 1.954 1.253 3.156 0 2.705-.423 5.351-.423 7.996 0 2.931.955 5.922 2.631 8.973l1.018-.226c.783-.165 1.378-.812 1.378-1.548 0-.812-.783-1.608-1.676-1.608l-.423.06.846-6.493c.423-3.277 2.396-6.448 5.388-7.876v23.117h-5.576c-.423 2.179-1.613 4.148-3.414 5.351-.423.286-.783.631-1.018 1.097-.219-.466-.579-.812-.987-1.112zM2.647 17.556c.235-.857.893-1.608 1.738-2.074l-.658-5.351a8.288 8.288 0 0 0-2.036-4.374v11.784h.955v.015zm2.819 6.373c0-.812.125-1.548.298-2.3l-.783-.18c-1.143-.346-2.036-1.203-2.334-2.3h-.955v4.78h3.774zm3.712 0c0-.977-.783-1.834-1.801-1.954-.172.631-.298 1.263-.298 1.954h2.099zm0 1.623H7.314c.298 1.263.955 2.42 1.864 3.397v-3.397zm2.631-5.005c-.72-1.262-1.378-2.585-1.801-3.968-.423 1.383-1.081 2.706-1.801 3.968.72.165 1.316.631 1.801 1.157.486-.526 1.081-.992 1.801-1.157zm1.143 3.382c0-.691-.125-1.323-.297-1.954-1.018.12-1.801.977-1.801 1.954h2.099zm-.235 1.623h-1.864v3.397c.908-.992 1.566-2.134 1.864-3.397zm5.623-1.623v-4.78h-.955c-.298 1.097-1.206 1.954-2.334 2.3l-.783.18c.172.752.298 1.488.298 2.3h3.774zm0-6.373V5.757c-1.081 1.202-1.864 2.706-2.036 4.374l-.658 5.351c.846.466 1.504 1.203 1.739 2.074h.955z"/></symbol><symbol id="icon-arrow-narrow-right" viewBox="0 0 32 32"><path stroke-linecap="round" stroke-linejoin="round" stroke-width="3.2" d="M5.333 16h21.333m.001 0-8-8m8 8-8 8"/></symbol><symbol id="icon-logo" viewBox="0 0 32 32"><path fill="#f6f6f6" d="m0 0 16.343 16.171L32 32V0H0z" style="fill:var(--color1,#f6f6f6)"/><path fill="#f6f6f6" d="M4.457 4.229 16.4 16.058l11.257 11.486h-23.2V4.23z" style="fill:var(--color1,#f6f6f6)"/><path fill="#4f2ee8" d="M27.733 27.618 15.79 15.789 4.533 4.303h23.2v23.314z" style="fill:var(--color2,#4f2ee8)"/><path fill="#4f2ee8" d="m9.257 9.029 13.6 13.6h-13.6v-13.6z" style="fill:var(--color2,#4f2ee8)"/><path fill="#f6f6f6" d="m9.257 9.029 13.6 13.6v-13.6h-13.6z" style="fill:var(--color1,#f6f6f6)"/></symbol><symbol id="icon-lock-02" viewBox="0 0 32 32"><path stroke-linecap="round" stroke-linejoin="round" stroke-width="2.286" d="M22.667 14.667v-4a6.667 6.667 0 0 0-13.334 0v4M10.4 28h11.2c2.24 0 3.36 0 4.216-.436a3.991 3.991 0 0 0 1.748-1.748C28 24.96 28 23.84 28 21.6v-.533c0-2.24 0-3.36-.436-4.216a3.991 3.991 0 0 0-1.748-1.748c-.856-.436-1.976-.436-4.216-.436H10.4c-2.24 0-3.36 0-4.216.436a3.996 3.996 0 0 0-1.748 1.748C4 17.707 4 18.827 4 21.067v.533c0 2.24 0 3.36.436 4.216a3.991 3.991 0 0 0 1.748 1.748C7.04 28 8.16 28 10.4 28z"/></symbol><symbol id="icon-mail-02" viewBox="0 0 32 32"><path stroke-linecap="round" stroke-linejoin="round" stroke-width="2.286" d="m28.667 24-8.857-8m-7.619 0-8.857 8M2.667 9.333l10.886 7.621c.882.617 1.322.926 1.802 1.045.424.106.866.106 1.29 0 .479-.12.92-.428 1.802-1.045l10.887-7.621M9.067 26.667h13.867c2.24 0 3.36 0 4.216-.436a3.996 3.996 0 0 0 1.748-1.748c.436-.856.436-1.976.436-4.216v-8.533c0-2.24 0-3.36-.436-4.216A3.996 3.996 0 0 0 27.15 5.77c-.856-.436-1.976-.436-4.216-.436H9.067c-2.24 0-3.36 0-4.216.436a3.991 3.991 0 0 0-1.748 1.748c-.436.856-.436 1.976-.436 4.216v8.533c0 2.24 0 3.36.436 4.216a3.996 3.996 0 0 0 1.748 1.748c.856.436 1.976.436 4.216.436z"/></symbol><symbol id="icon-x-close" viewBox="0 0 32 32"><path stroke-linecap="round" stroke-linejoin="round" stroke-width="3.429" d="M24 8 8 24M8 8l16 16"/></symbol><symbol id="icon-up" viewBox="0 0 32 32"><path fill="#fff" style="fill:var(--color3,#fff)" d="M4.5 19.6 15.7 8.367c.133-.133.278-.228.433-.283s.322-.084.5-.084.345.028.5.084.3.149.433.283L28.799 19.6c.311.311.467.7.467 1.167s-.167.867-.5 1.2c-.333.333-.722.5-1.167.5s-.833-.167-1.167-.5l-9.8-9.8-9.8 9.8c-.311.311-.694.467-1.149.467s-.851-.167-1.184-.5-.5-.722-.5-1.167c0-.444.167-.833.5-1.167z"/></symbol><symbol id="icon-ri_user-fill" viewBox="0 0 32 32"><path d="M5.333 29.333a10.662 10.662 0 0 1 18.208-7.543c2 2 3.124 4.714 3.124 7.543H5.332zm10.667-12c-4.42 0-8-3.58-8-8s3.58-8 8-8 8 3.58 8 8-3.58 8-8 8z"/></symbol><symbol id="icon-linkedin" viewBox="0 0 32 32"><path d="M29 0H3C1.35 0 0 1.35 0 3v26c0 1.65 1.35 3 3 3h26c1.65 0 3-1.35 3-3V3c0-1.65-1.35-3-3-3zM12 26H8V12h4v14zm-2-16c-1.106 0-2-.894-2-2s.894-2 2-2c1.106 0 2 .894 2 2s-.894 2-2 2zm16 16h-4v-8c0-1.106-.894-2-2-2s-2 .894-2 2v8h-4V12h4v2.481C18.825 13.35 20.087 12 21.5 12c2.488 0 4.5 2.238 4.5 5v9z"/></symbol><symbol id="icon-github" viewBox="0 0 32 32"><path d="M16 .395c-8.836 0-16 7.163-16 16 0 7.069 4.585 13.067 10.942 15.182.8.148 1.094-.347 1.094-.77 0-.381-.015-1.642-.022-2.979-4.452.968-5.391-1.888-5.391-1.888-.728-1.849-1.776-2.341-1.776-2.341-1.452-.993.11-.973.11-.973 1.606.113 2.452 1.649 2.452 1.649 1.427 2.446 3.743 1.739 4.656 1.33.143-1.034.558-1.74 1.016-2.14-3.554-.404-7.29-1.777-7.29-7.907 0-1.747.625-3.174 1.649-4.295-.166-.403-.714-2.03.155-4.234 0 0 1.344-.43 4.401 1.64A15 15 0 0 1 16 8.13h.001c1.359.006 2.729.184 4.008.539 3.054-2.07 4.395-1.64 4.395-1.64.871 2.204.323 3.831.157 4.234 1.026 1.12 1.647 2.548 1.647 4.295 0 6.145-3.743 7.498-7.306 7.895.574.497 1.085 1.47 1.085 2.963 0 2.141-.019 3.864-.019 4.391 0 .426.288.925 1.099.768C27.421 29.457 32 23.462 32 16.395c0-8.837-7.164-16-16-16z"/></symbol><symbol id="icon-bug" viewBox="0 0 32 32"><path d="M32 18v-2h-6.04c-.183-2.271-.993-4.345-2.24-6.008h5.061l2.189-8.758-1.94-.485-1.811 7.242H21.76l-.084-.064c.21-.609.324-1.263.324-1.944 0-3.305-2.686-5.984-6-5.984s-6 2.679-6 5.984c0 .68.114 1.334.324 1.944l-.084.064H4.781L2.97.749l-1.94.485 2.189 8.758H8.28C7.034 11.655 6.224 13.728 6.04 16H0v2h6.043a11.776 11.776 0 0 0 1.081 4.064l-.03-.072H3.219L1.03 30.749l1.94.485 1.811-7.243h3.511c1.834 2.439 4.606 3.992 7.708 3.992s5.874-1.554 7.708-3.992h3.511l1.811 7.243 1.94-.485-2.189-8.757h-3.875a11.494 11.494 0 0 0 1.048-3.949l.003-.043H32z"/></symbol><symbol id="icon-buggs" viewBox="0 0 32 32"><path d="M143.5 4.8c-3.6.7-6.5 4.3-6.5 7.9 0 5 3.7 8.3 9.2 8.3 12.2 0 25.6 4.4 29.8 9.7 2.7 3.5 2.6 4.4-1.7 9.5-4.8 5.7-10.1 17-10.9 23.3-.4 2.7-2 7.2-3.5 10-5.5 10-5.9 13.1-5.9 46.6v30.7l-2.7.7c-7.5 1.8-17.7 11.3-20.5 19.1-.7 1.9-1.6 3.4-2 3.4-2 0-14.7-13.5-18.1-19.1-6-10.1-7.7-17.2-8.7-35.6-1.4-25.5-5.4-45-13.6-66.2C84.2 42.3 81.5 39 77 39c-4.4 0-6.6 1.4-7.9 5.1-.9 2.7-.5 4.4 3 13.5 2.3 5.8 3.9 10.7 3.7 11-.3.2-2.3-.2-4.5-1-5.5-2-19-3.9-21.9-3.2-5 1.3-7.7 7-5.8 12.1.9 2.2 5.7 4.5 9.5 4.5 8.4 0 26.7 6.9 28.7 10.7 1.4 2.8 2.2 9.2 3.6 29.8 1.6 21.6 3.7 29.8 10.7 41.8 7.2 12.2 23.2 26.8 31 28.4 2 .4 2.9 1.4 3.8 4.1 2.7 9.1 14.4 19 24.6 20.8 3.9.7 3.8.8-4 2.1-14.7 2.6-26.9 8.9-37.4 19.4-12.1 12.1-18.7 27-19.8 45.1-.7 11.3-.9 11.4-8.9 7.2-6.3-3.3-8.5-5.4-14.9-13.9-7.8-10.5-14.8-17.8-24.4-25.3C28.9 237.6 13.2 228 8.2 228c-3.6 0-6.8 2.7-7.7 6.3-1.2 4.7 1 7.2 11.7 13.6 5.7 3.4 11.4 7 12.7 8l2.5 1.9-7.4 3.7C1.7 270.7-3.8 278.4 3.2 285c3.3 3 6.8 2.5 13.1-2 7.1-5.1 15.9-9.5 22.1-11.1 4.7-1.2 4.8-1.1 8.3 2.2 1.9 1.9 6.1 7 9.3 11.5 9.9 13.6 18.1 19.7 31.5 23.4l6 1.7.3 21.4.2 21.4-5.7 3c-7.2 3.6-21.5 17.8-26.2 25.8-7.1 12-11 28-11.1 45.2 0 9.5-2.3 26-3.9 27.9-2.2 2.6-14.8 7.5-22.1 8.7-4.1.6-8.5 1.3-9.8 1.5-6.3 1.2-8.4 9.3-3.6 14.1 2.4 2.4 2.9 2.5 9.8 1.9 4-.4 10.3-1.5 14-2.6 3.6-1 6.6-1.6 6.6-1.4 0 .3-1.8 5.2-4 10.9-4.5 11.3-4.5 14.5-.3 17.2 2.9 1.9 7.8 2 10 .1 3-2.4 8.9-17.6 13.8-34.8 3.3-12 5.4-26.6 6.5-44.8.9-17.2 2.3-23 7.6-33.3C78.7 387 91.1 373 93.2 373c.4 0 .8 2.8.8 6.2 0 54.8 36.2 104.9 87.8 121.7 18.6 6.1 24.2 6.6 74.2 6.6 50.1 0 55.7-.5 73.7-6.4 26.7-8.7 51.2-27.4 66.5-50.6 13.5-20.4 19.9-40.1 21.7-67.2l.7-10.8 7.5 7.5c12 12 17.8 26.3 17.9 44 0 8.2 1.3 21.8 3.1 32 3 17.3 13 46.4 17.2 49.8 2.2 1.9 7.1 1.8 10-.1 4.1-2.7 4.2-6 .4-15.6-1.9-4.7-3.8-9.6-4.1-10.8l-.7-2.2 6.7 1.9c3.7 1.1 10 2.2 14 2.6 6.9.6 7.4.5 9.8-1.9 4.8-4.8 2.7-12.9-3.6-14.1-1.3-.2-5.5-.9-9.5-1.5-7.9-1.2-17-4.5-20.9-7.6-2.1-1.7-2.8-3.5-4-11.5-.7-5.2-1.4-13-1.4-17.2 0-16.7-4.2-33.7-11.1-45.5-4.7-8-19-22.2-26.1-25.8l-5.8-3v-43.1l5.4-1.1c12.1-2.6 23.8-10.8 31.6-22.2 2-3.1 5.9-8 8.5-10.9 4.3-4.8 5.1-5.2 7.9-4.6 6.7 1.4 14.2 4.9 21.8 10 4.3 3 9 5.4 10.4 5.4 3.7 0 7.4-4.2 7.4-8.4 0-2.9-.8-4.2-5.2-8-2.8-2.5-8.6-6.2-12.9-8.3-4.3-2.1-7.8-4.1-7.8-4.5-.1-.7 13.6-9.6 19.6-12.6 7.5-3.9 9.5-10.1 4.8-14.7-4.6-4.7-9.6-3-27.5 8.9-18.4 12.2-31.6 24.3-40 36.6-4.7 6.9-10.9 12.6-16.4 15.1-7.1 3.2-7.2 3.1-7.9-7.9-1.1-18.1-7.7-33-19.8-45.1-10.6-10.6-23.2-17.1-37.5-19.3l-7.7-1.2 4.5-1.2c11.1-2.8 21.3-11.5 23.9-20.5.8-2.4 1.8-3.9 2.8-3.9 5.7 0 22.4-14.1 29.5-24.9 8.7-13.1 12.1-24.3 13-43.6.8-15 2.5-29.4 3.8-31.8 1.6-3 14.5-8.5 22.8-9.8 11.5-1.7 11.9-1.8 14-3.9 4.1-4.1 1.5-12.1-4.4-13.6-2.9-.7-16.4 1.2-21.9 3.2-2.2.8-4.2 1.2-4.5 1-.2-.3 1.4-5.2 3.7-11 3.5-9.1 3.9-10.8 3-13.5-1.3-3.7-3.5-5.1-8.3-5.1-4.5 0-6.5 2.5-11 14.3-8.5 21.9-12.1 39.6-13.6 65.7-1.2 22-4.4 32-13.8 43.3-4.1 4.8-11.8 11.7-13.1 11.7-.4 0-1.2-1.5-1.9-3.4-2.8-7.8-13-17.3-20.4-19.1l-2.8-.7v-30.9c0-28.7-.2-31.4-2.1-37.2-1.1-3.4-3-7.8-4.1-9.7-1.1-1.9-2.7-6.6-3.5-10.4-1.7-8.1-5.7-16.5-10.7-22.5-4.2-5-4.3-5.4-1.6-9.1 3.9-5.5 17.3-10 29.8-10 8.3 0 12.4-8.6 6.7-14-2.2-2.1-3.3-2.3-10.4-2.1-9.5.2-21.4 3.1-28.2 6.8-4.7 2.5-11.4 8.8-13.5 12.6-.9 1.6-1.3 1.6-5.5.1-6-2.2-20-2.9-27.1-1.5-9.1 1.9-17.5 6.7-25 14.2l-6.8 6.7-6.7-6.7c-7.6-7.5-16-12.3-25.1-14.2-7.1-1.4-21.1-.7-27.1 1.5-4.2 1.6-4.5 1.5-5.4-.1-2-3.7-11.1-11.6-16-13.9-8.1-3.7-25.9-6.8-32.2-5.6zM231.7 34c8.6 4 15.5 10.7 19.8 19.3 1.9 3.8 3.5 7.8 3.5 8.8 0 1.1.5 1.9 1 1.9.6 0 1-.8 1-1.9 0-1 1.6-5 3.5-8.8 13.2-26.4 48.6-31.6 69-10.2 16.6 17.4 16 43.6-1.4 60.3-7.1 6.7-14.2 10.2-23.1 11.5-14.7 2-28.6-3-38.4-13.9-3.9-4.3-9.6-15.2-9.6-18.3 0-.9-.4-1.7-1-1.7-.5 0-1 .8-1 1.7 0 1-1.3 4.6-2.9 7.9-12.6 26.7-46.8 33.1-68.1 12.8-17.6-16.8-18.3-42.8-1.5-60.3 12.9-13.5 32.2-17.1 49.2-9.1zm102 126.6c5 3.7 7.3 8.1 7.3 14.1 0 6.5-1.8 10.3-6.7 14l-3.6 2.8H181.3l-3.6-2.8c-4.9-3.7-6.7-7.5-6.7-13.7 0-7.4 3.7-13.4 10-15.9 1.6-.6 28.6-.9 76.2-.8 73 .2 73.7.2 76.5 2.3z"/><path d="M221.6 59.5c-1 4.9-7 11-12.5 12.5-4.1 1.1-4.3 1.3-3.7 4.2.8 4.1 4.9 9.4 8.8 11.4 2.2 1.1 4.9 1.5 8.8 1.2 9.8-.7 15.4-6.6 15.4-16.4 0-6.3-3.5-12.3-8.7-14.7-5.5-2.7-7.4-2.3-8.1 1.8zm66.2 1.2c-2 5.7-5.1 9-10.5 10.8-3.3 1.2-3.8 1.7-3.5 4.1.9 7.6 6.6 12.6 15.2 13.2 6.8.5 10.7-1.2 14.6-6.4 7.3-9.6 1.5-24.5-10.2-26.1l-3.9-.5-1.7 4.9z"/></symbol></defs></svg>